<mxfile host="65bd71144e">
    <diagram name="Flowchart Student Grades" id="0">
        <mxGraphModel dx="354" dy="262" grid="1" gridSize="10" guides="1" tooltips="1" connect="1" arrows="1" fold="1" page="1" pageScale="1" pageWidth="827" pageHeight="1169" math="0" shadow="0">
            <root>
                <mxCell id="0"/>
                <mxCell id="1" parent="0"/>
                <mxCell id="start_main" value="Start" style="ellipse;whiteSpace=wrap;" parent="1" vertex="1">
                    <mxGeometry x="240" y="20" width="80" height="40" as="geometry"/>
                </mxCell>
                <mxCell id="input_students" value="Input details of 3 students" style="parallelogram;whiteSpace=wrap;" parent="1" vertex="1">
                    <mxGeometry x="180" y="80" width="200" height="60" as="geometry"/>
                </mxCell>
                <mxCell id="condition_loop_i" value="i &lt; 3 ?" style="rhombus;whiteSpace=wrap;" parent="1" vertex="1">
                    <mxGeometry x="240" y="160" width="80" height="60" as="geometry"/>
                </mxCell>
                <mxCell id="input_name" value="Input Name, ID, Score1-5" style="parallelogram;whiteSpace=wrap;" parent="1" vertex="1">
                    <mxGeometry x="180" y="260" width="200" height="100" as="geometry"/>
                </mxCell>
                <mxCell id="increment_i" value="i = i + 1" style="rectangle;whiteSpace=wrap;" parent="1" vertex="1">
                    <mxGeometry x="240" y="380" width="80" height="40" as="geometry"/>
                </mxCell>
                <mxCell id="display_loop" value="Display student info and average" style="rectangle;whiteSpace=wrap;" parent="1" vertex="1">
                    <mxGeometry x="180" y="460" width="200" height="120" as="geometry"/>
                </mxCell>
                <mxCell id="stop_main" value="Stop" style="ellipse;whiteSpace=wrap;" parent="1" vertex="1">
                    <mxGeometry x="240" y="600" width="80" height="40" as="geometry"/>
                </mxCell>
                <mxCell id="edge_start_input" style="edgeStyle=orthogonalEdgeStyle;rounded=0;" parent="1" source="start_main" target="input_students" edge="1">
                    <mxGeometry relative="1" as="geometry"/>
                </mxCell>
                <mxCell id="edge_input_condition" style="edgeStyle=orthogonalEdgeStyle;rounded=0;" parent="1" source="input_students" target="condition_loop_i" edge="1">
                    <mxGeometry relative="1" as="geometry"/>
                </mxCell>
                <mxCell id="edge_condition_true" style="edgeStyle=orthogonalEdgeStyle;rounded=0;" parent="1" source="condition_loop_i" target="input_name" edge="1">
                    <mxGeometry relative="1" as="geometry"/>
                </mxCell>
                <mxCell id="edge_input_increment" style="edgeStyle=orthogonalEdgeStyle;rounded=0;" parent="1" source="input_name" target="increment_i" edge="1">
                    <mxGeometry relative="1" as="geometry"/>
                </mxCell>
                <mxCell id="edge_increment_condition" style="edgeStyle=orthogonalEdgeStyle;rounded=0;" parent="1" source="increment_i" target="condition_loop_i" edge="1">
                    <mxGeometry relative="1" as="geometry">
                        <Array as="points">
                            <mxPoint x="150" y="400"/>
                            <mxPoint x="150" y="240"/>
                            <mxPoint x="280" y="240"/>
                        </Array>
                    </mxGeometry>
                </mxCell>
                <mxCell id="edge_condition_false" style="edgeStyle=orthogonalEdgeStyle;rounded=0;" parent="1" source="condition_loop_i" target="display_loop" edge="1">
                    <mxGeometry relative="1" as="geometry">
                        <Array as="points">
                            <mxPoint x="420" y="190"/>
                            <mxPoint x="420" y="520"/>
                        </Array>
                    </mxGeometry>
                </mxCell>
                <mxCell id="edge_display_stop" style="edgeStyle=orthogonalEdgeStyle;rounded=0;" parent="1" source="display_loop" target="stop_main" edge="1">
                    <mxGeometry relative="1" as="geometry"/>
                </mxCell>
                <mxCell id="2" style="edgeStyle=none;html=1;" edge="1" parent="1" source="start_getGradeText" target="condition_grade1">
                    <mxGeometry relative="1" as="geometry"/>
                </mxCell>
                <mxCell id="start_getGradeText" value="Start getGradeText(score)" style="ellipse;whiteSpace=wrap;" parent="1" vertex="1">
                    <mxGeometry x="480" y="80" width="140" height="40" as="geometry"/>
                </mxCell>
                <mxCell id="3" style="edgeStyle=none;html=1;" edge="1" parent="1" source="condition_grade1" target="return_A">
                    <mxGeometry relative="1" as="geometry"/>
                </mxCell>
                <mxCell id="condition_grade1" value="score &gt;= 80 ?" style="rhombus;whiteSpace=wrap;" parent="1" vertex="1">
                    <mxGeometry x="480" y="140" width="140" height="60" as="geometry"/>
                </mxCell>
                <mxCell id="4" style="edgeStyle=none;html=1;entryX=0.5;entryY=0;entryDx=0;entryDy=0;" edge="1" parent="1" source="return_A" target="condition_grade2">
                    <mxGeometry relative="1" as="geometry"/>
                </mxCell>
                <mxCell id="return_A" value="Return &quot;A&quot;" style="rectangle;whiteSpace=wrap;" parent="1" vertex="1">
                    <mxGeometry x="480" y="220" width="140" height="40" as="geometry"/>
                </mxCell>
                <mxCell id="6" style="edgeStyle=none;html=1;entryX=0.5;entryY=0;entryDx=0;entryDy=0;" edge="1" parent="1" source="condition_grade2" target="return_Bplus">
                    <mxGeometry relative="1" as="geometry"/>
                </mxCell>
                <mxCell id="condition_grade2" value="score &gt;= 75 ?" style="rhombus;whiteSpace=wrap;" parent="1" vertex="1">
                    <mxGeometry x="480" y="280" width="140" height="60" as="geometry"/>
                </mxCell>
                <mxCell id="7" style="edgeStyle=none;html=1;" edge="1" parent="1" source="return_Bplus" target="condition_grade3">
                    <mxGeometry relative="1" as="geometry"/>
                </mxCell>
                <mxCell id="return_Bplus" value="Return &quot;B+&quot;" style="rectangle;whiteSpace=wrap;" parent="1" vertex="1">
                    <mxGeometry x="480" y="360" width="140" height="40" as="geometry"/>
                </mxCell>
                <mxCell id="condition_grade3" value="score &gt;= 70 ?" style="rhombus;whiteSpace=wrap;" parent="1" vertex="1">
                    <mxGeometry x="480" y="420" width="140" height="60" as="geometry"/>
                </mxCell>
                <mxCell id="9" style="edgeStyle=none;html=1;entryX=0.5;entryY=0;entryDx=0;entryDy=0;" edge="1" parent="1" source="return_B" target="condition_grade4">
                    <mxGeometry relative="1" as="geometry"/>
                </mxCell>
                <mxCell id="return_B" value="Return &quot;B&quot;" style="rectangle;whiteSpace=wrap;" parent="1" vertex="1">
                    <mxGeometry x="480" y="500" width="140" height="40" as="geometry"/>
                </mxCell>
                <mxCell id="10" style="edgeStyle=none;html=1;entryX=0.5;entryY=0;entryDx=0;entryDy=0;" edge="1" parent="1" source="condition_grade4" target="return_Cplus">
                    <mxGeometry relative="1" as="geometry"/>
                </mxCell>
                <mxCell id="condition_grade4" value="score &gt;= 65 ?" style="rhombus;whiteSpace=wrap;" parent="1" vertex="1">
                    <mxGeometry x="480" y="560" width="140" height="60" as="geometry"/>
                </mxCell>
                <mxCell id="11" style="edgeStyle=none;html=1;entryX=0.5;entryY=0;entryDx=0;entryDy=0;" edge="1" parent="1" source="return_Cplus" target="return_C">
                    <mxGeometry relative="1" as="geometry"/>
                </mxCell>
                <mxCell id="return_Cplus" value="Return &quot;C+&quot;" style="rectangle;whiteSpace=wrap;" parent="1" vertex="1">
                    <mxGeometry x="480" y="640" width="140" height="40" as="geometry"/>
                </mxCell>
                <mxCell id="12" style="edgeStyle=none;html=1;exitX=0.5;exitY=1;exitDx=0;exitDy=0;entryX=0.5;entryY=0;entryDx=0;entryDy=0;" edge="1" parent="1" source="return_C" target="return_Dplus">
                    <mxGeometry relative="1" as="geometry"/>
                </mxCell>
                <mxCell id="return_C" value="Return &quot;C&quot;" style="rectangle;whiteSpace=wrap;" parent="1" vertex="1">
                    <mxGeometry x="480" y="700" width="140" height="40" as="geometry"/>
                </mxCell>
                <mxCell id="13" style="edgeStyle=none;html=1;exitX=0.5;exitY=1;exitDx=0;exitDy=0;entryX=0.5;entryY=0;entryDx=0;entryDy=0;" edge="1" parent="1" source="return_Dplus" target="return_D">
                    <mxGeometry relative="1" as="geometry"/>
                </mxCell>
                <mxCell id="return_Dplus" value="Return &quot;D+&quot;" style="rectangle;whiteSpace=wrap;" parent="1" vertex="1">
                    <mxGeometry x="480" y="760" width="140" height="40" as="geometry"/>
                </mxCell>
                <mxCell id="14" style="edgeStyle=none;html=1;exitX=0.5;exitY=1;exitDx=0;exitDy=0;entryX=0.5;entryY=0;entryDx=0;entryDy=0;" edge="1" parent="1" source="return_D" target="return_F">
                    <mxGeometry relative="1" as="geometry"/>
                </mxCell>
                <mxCell id="return_D" value="Return &quot;D&quot;" style="rectangle;whiteSpace=wrap;" parent="1" vertex="1">
                    <mxGeometry x="480" y="820" width="140" height="40" as="geometry"/>
                </mxCell>
                <mxCell id="15" style="edgeStyle=none;html=1;exitX=0.5;exitY=1;exitDx=0;exitDy=0;entryX=0.5;entryY=0;entryDx=0;entryDy=0;" edge="1" parent="1" source="return_F" target="stop_getGradeText">
                    <mxGeometry relative="1" as="geometry"/>
                </mxCell>
                <mxCell id="return_F" value="Return &quot;F&quot;" style="rectangle;whiteSpace=wrap;" parent="1" vertex="1">
                    <mxGeometry x="480" y="880" width="140" height="40" as="geometry"/>
                </mxCell>
                <mxCell id="stop_getGradeText" value="Stop" style="ellipse;whiteSpace=wrap;" parent="1" vertex="1">
                    <mxGeometry x="480" y="940" width="140" height="40" as="geometry"/>
                </mxCell>
                <mxCell id="8" style="edgeStyle=none;html=1;" edge="1" parent="1" source="condition_grade3">
                    <mxGeometry relative="1" as="geometry">
                        <mxPoint x="550" y="500" as="targetPoint"/>
                    </mxGeometry>
                </mxCell>
            </root>
        </mxGraphModel>
    </diagram>
</mxfile>